<svg width="445" height="424" viewBox="0 0 445 424" fill="none" xmlns="http://www.w3.org/2000/svg">
<g clip-path="url(#clip0_190_549)">
<path d="M56.1198 238.544L32.7769 88.3322L34.6673 88.0381L57.716 236.366L363.465 188.892L363.753 190.776L56.1198 238.544Z" fill="white"/>
<path d="M71.1746 208.409L70.8804 206.525L143.3 195.281L153.172 167.837L154.831 167.586L172.484 190.751L199.169 186.602L203.151 124.993L204.978 124.662L230.619 181.721L248.084 179.012L265.88 70.3675L267.689 70.1172L313.724 168.819L346.407 163.744L346.701 165.628L313.305 170.815L312.297 170.277L267.264 73.7276L249.855 180.001L249.06 180.789L230.193 183.718L229.173 183.167L204.809 128.948L201.029 187.491L200.221 188.373L172.221 192.722L171.313 192.359L154.374 170.133L144.903 196.464L144.152 197.083L71.1746 208.409Z" fill="white"/>
<path d="M239.942 68.2662L108.023 172.026L109.204 173.526L241.123 69.766L239.942 68.2662Z" fill="white"/>
</g>
<path d="M76.6392 420.933L339.034 180.674L322.343 168.954L429.773 132.53L418.625 229.077L404.814 217.482L193.366 420.933H76.6392Z" fill="#0BD9B3"/>
<path d="M0 334.84L56.9673 285.953L44.1553 277.67L116.295 260.927L109.993 327.347L99.0427 320.416L0 411.004V334.84Z" fill="#0BD9B3"/>
<path d="M276.662 420.342L382.532 319.376L367.921 309.517L445 286.441L434.377 354.827L425.392 346.794L351.076 423.218H276.662V420.342Z" fill="#0BD9B3"/>
<path d="M67.439 178.451C67.439 179.147 67.439 179.844 67.4442 180.541L67.4546 178.539C67.4598 178.575 67.465 178.612 67.4702 178.648C67.6158 182.48 67.9641 186.073 68.4789 189.458C80.7449 192.999 95.1323 188.054 104.601 179.371C103.628 174.343 104.024 170.511 104.024 170.511L103.805 170.542C105.017 168.93 105.906 167.11 106.026 165.056C106.311 160.195 102.318 156.43 98.7044 153.503C97.9453 152.889 97.1237 152.25 96.1774 152.203C95.2986 152.161 94.4927 152.671 93.9103 153.399C93.9051 153.388 93.8999 153.378 93.8947 153.373C92.4856 150.757 89.6518 148.698 86.7036 149.062C83.7554 149.432 81.3844 152.936 82.7883 155.551C80.4641 154.423 77.6303 153.992 75.3164 155.141C73.0026 156.29 71.5987 159.358 72.8414 161.619C71.4635 160.543 69.2953 161.391 68.3697 162.873C67.4442 164.354 67.4182 166.206 67.4234 167.953C67.4286 170.324 67.4286 172.69 67.4338 175.061C67.3194 176.199 67.309 177.338 67.439 178.451Z" fill="#FF647C"/>
<path d="M108.344 189.359C106.306 185.99 105.193 182.459 104.6 179.381C95.1319 188.059 80.7445 193.004 68.4785 189.468C69.1389 193.825 70.0904 197.824 71.2707 201.5C84.3114 203.866 98.1113 197.97 108.344 189.359Z" fill="white"/>
<path d="M215.973 197.954C200.14 191.054 182.326 190.202 165.905 195.568L144.634 202.514C123.445 204.641 113.233 197.455 108.345 189.359C98.1125 197.97 84.3127 203.866 71.272 201.495C84.7494 243.43 128.832 242.864 128.832 242.864L179.138 304.271L251.788 213.569L215.973 197.954Z" fill="#EBC455"/>
<path d="M148.679 183.458C148.689 181.409 147.296 179.709 145.819 178.549C144.348 177.39 142.663 176.49 141.529 174.909C140.391 173.329 140.042 170.713 141.379 169.351C142.044 168.675 142.975 168.451 143.687 167.843C144.925 166.787 145.247 164.817 145.174 163.054C145.102 161.291 144.722 159.524 144.94 157.777C145.159 156.029 146.225 154.225 147.759 154.106C148.804 154.022 149.802 154.735 150.847 154.683C152.236 154.615 153.307 153.237 153.951 151.823C154.596 150.409 155.012 148.818 155.943 147.637C156.874 146.452 158.6 145.849 159.65 146.899C161.408 148.656 159.416 152.509 160.987 154.48C162.541 156.425 166.249 154.792 167.132 157.225C168.053 159.768 164.044 161.869 164.616 164.536C164.793 165.358 165.385 165.976 165.692 166.751C166.259 168.186 165.755 169.871 165.084 171.249C164.039 173.391 162.583 175.263 160.851 176.703C157.44 179.532 153.171 180.556 149.048 181.508C149.137 180.738 148.991 179.937 148.648 179.272L148.679 183.458Z" fill="white"/>
<path d="M160.061 181.955C162.364 180.036 164.663 178.117 166.342 175.778C162.962 173.557 159.224 173.412 156.645 173.698C154.752 173.906 153.177 175.226 152.61 177.041L144.056 204.636C143.651 205.946 143.916 207.381 144.769 208.457C150.821 216.044 156.842 215.732 161.314 213.569C165.874 211.364 168.386 206.372 167.621 201.37L165.463 187.243L173.107 186.4C172.675 184.731 172.14 183.281 171.531 182.007C167.886 183.255 163.711 183.26 160.061 181.955Z" fill="#FF647C"/>
<path d="M166.341 175.777C164.666 178.117 162.363 180.036 160.06 181.955C163.71 183.26 167.885 183.254 171.535 182.007C170.116 179.027 168.291 177.056 166.341 175.777Z" fill="white"/>
<path d="M151.357 182.761C151.357 184.726 149.766 186.317 147.8 186.317C145.835 186.317 144.244 184.726 144.244 182.761C144.244 180.795 145.835 179.204 147.8 179.204C149.76 179.199 151.357 180.795 151.357 182.761Z" fill="#FF647C"/>
<path d="M242.028 215.907C242.46 214.493 242.912 213.042 243.843 211.899C244.774 210.755 246.313 209.98 247.722 210.385C248.913 210.729 249.739 211.795 250.431 212.829C252.032 215.221 253.4 217.774 254.502 220.442C254.741 221.024 254.975 221.663 254.793 222.267C254.502 223.229 253.322 223.598 252.318 223.567C249.771 223.489 247.374 221.648 246.625 219.199L242.028 215.907Z" fill="#FF647C"/>
<path d="M233.065 222.661C234.068 224.548 235.067 226.431 236.07 228.318C236.907 229.888 238.093 231.677 239.809 231.573C241.187 231.49 242.253 230.102 242.492 228.666C242.731 227.237 242.341 225.786 241.899 224.418C241.306 222.572 240.61 220.737 239.492 219.193C238.998 218.512 238.384 217.867 237.594 217.674C236.59 217.425 235.524 217.971 234.786 218.746C232.971 220.649 232.852 224.044 234.531 226.035L233.065 222.661Z" fill="#FF647C"/>
<path d="M239.704 242.181C235.675 239.924 233.293 235.312 233.028 230.7C232.763 226.088 234.406 221.523 236.891 217.628C238.508 215.096 240.968 212.574 243.968 212.793C245.798 212.928 247.379 214.072 248.845 215.174C249.901 215.964 250.977 216.781 251.679 217.893C253.166 220.249 252.646 223.317 251.882 225.994C250.878 229.52 249.454 233.087 246.739 235.546C244.264 237.787 240.593 239.378 240.053 242.675L239.704 242.181Z" fill="#FF647C"/>
<path d="M236.288 224.252C236.366 221.013 237.354 217.82 239.127 215.075C239.569 214.394 240.115 213.697 240.926 213.442C242.31 213.011 243.75 214.03 244.686 215.106C246.246 216.895 247.301 219.011 248.336 221.101C249.282 223.01 250.135 225.505 248.57 226.961C247.514 227.939 245.71 227.913 244.395 227.216C243.079 226.519 242.169 225.292 241.462 224.039C241.223 223.613 240.942 223.129 240.448 223.004C240.136 222.926 239.809 223.01 239.507 223.103C238.327 223.472 237.204 224.008 236.195 224.684L236.288 224.252Z" fill="#FF647C"/>
<path d="M245.679 213.24C246.053 211.935 246.448 210.593 247.244 209.527C248.039 208.467 249.334 207.733 250.514 208.092C251.513 208.394 252.189 209.371 252.761 210.312C254.081 212.501 255.199 214.836 256.099 217.28C256.296 217.815 256.484 218.403 256.322 218.959C256.068 219.849 255.074 220.202 254.232 220.181C252.095 220.134 250.104 218.465 249.5 216.214L245.679 213.24Z" fill="#FF647C"/>
<path d="M237.792 216.661C240.246 219.922 241.967 223.546 242.929 227.513C243.049 228.002 243.798 227.794 243.683 227.305C242.706 223.27 240.964 219.584 238.468 216.266C238.166 215.871 237.49 216.256 237.792 216.661Z" fill="#16171C"/>
<path d="M243.375 213.323C246.682 216.615 248.491 221.273 249.729 225.698C249.864 226.182 250.618 225.974 250.483 225.49C249.209 220.941 247.332 216.157 243.926 212.772C243.573 212.418 243.021 212.97 243.375 213.323Z" fill="#16171C"/>
<path d="M255.149 219.858C254.197 215.324 250.968 212.054 246.964 209.948C246.522 209.714 246.127 210.39 246.569 210.624C250.407 212.641 253.485 215.72 254.395 220.066C254.504 220.555 255.253 220.347 255.149 219.858Z" fill="#16171C"/>
<path d="M238.373 231.199C238.805 228.813 240.988 227.143 243.401 227.351C243.9 227.393 243.9 226.613 243.401 226.572C240.666 226.332 238.108 228.293 237.619 230.991C237.531 231.485 238.285 231.693 238.373 231.199Z" fill="#16171C"/>
<path d="M245.382 227.487C246.5 225.532 248.554 224.404 250.805 224.497C251.31 224.518 251.305 223.738 250.805 223.717C248.289 223.618 245.965 224.908 244.711 227.097C244.462 227.529 245.133 227.919 245.382 227.487Z" fill="#16171C"/>
<path d="M251.95 223.769C252.355 222.058 253.832 220.784 255.595 220.68C256.094 220.649 256.099 219.869 255.595 219.9C253.489 220.025 251.685 221.502 251.196 223.566C251.081 224.05 251.835 224.258 251.95 223.769Z" fill="#16171C"/>
<path d="M255.09 218.715C255.34 217.576 256.172 216.682 257.3 216.38C257.784 216.25 257.581 215.496 257.092 215.626C255.714 216.001 254.643 217.108 254.337 218.507C254.233 219.001 254.981 219.209 255.09 218.715Z" fill="#16171C"/>
<path d="M227.017 344.496L222.009 366.189H244.586L250.597 356.668V366.189H303.888C303.888 366.189 296.453 346.243 275.477 340.685L227.017 344.496Z" fill="#16171C"/>
<path d="M149.385 213.569C149.385 213.569 161.911 218.66 167.516 207.033L178.69 214.9H162.884L155.594 228.081L149.385 213.569Z" fill="white"/>
<path d="M188.902 317.64C188.902 317.64 159.633 299.852 195.115 258.182C230.598 216.517 258.613 227.764 268.696 239.962C278.778 252.161 292.094 277.467 281.877 342.978L224.894 346.17C224.894 346.17 238.896 309.768 228.144 282.288L188.902 317.64Z" fill="#E4E4E4"/>
<path d="M157.492 177.665C158.298 176.942 159.291 176.605 160.368 176.662C160.867 176.688 160.867 175.908 160.368 175.882C159.088 175.814 157.887 176.256 156.941 177.114C156.572 177.452 157.123 178.003 157.492 177.665Z" fill="#16171C"/>
<path d="M146.199 182.225C147.249 182.522 148.305 182.823 149.355 183.12C149.839 183.255 150.047 182.506 149.563 182.366C148.513 182.069 147.457 181.768 146.407 181.471C145.923 181.336 145.715 182.085 146.199 182.225Z" fill="#16171C"/>
<path d="M92.549 153.591C91.4571 154.937 90.568 156.409 89.9908 158.052C89.6476 159.035 88.8365 161 89.5228 161.999C90.1416 162.898 91.7951 162.799 92.7154 162.659C94.2181 162.425 95.5076 161.65 96.506 160.522C96.8387 160.147 96.2876 159.591 95.9548 159.971C94.7849 161.291 89.9856 163.735 90.2352 160.116C90.3808 158 91.8055 155.738 93.1054 154.142C93.4174 153.757 92.8662 153.201 92.549 153.591Z" fill="#16171C"/>
<path d="M96.0904 160.335C92.4403 164.833 91.4211 170.755 93.4438 176.199C93.6154 176.667 94.3693 176.464 94.1977 175.991C92.2791 170.833 93.1682 165.171 96.6416 160.886C96.9536 160.501 96.4076 159.945 96.0904 160.335Z" fill="#16171C"/>
<path d="M72.3317 161.438C75.0459 162.425 77.3025 164.594 78.0669 167.433C78.592 169.388 78.2436 172.102 75.4462 171.826C73.5952 171.644 72.4356 169.809 71.5153 168.4C71.2397 167.979 70.569 168.374 70.8394 168.795C71.9365 170.48 73.2312 172.352 75.389 172.648C77.0737 172.877 78.4828 171.941 78.93 170.303C80.0687 166.102 76.143 162.004 72.5344 160.689C72.0665 160.512 71.8637 161.266 72.3317 161.438Z" fill="#16171C"/>
<path d="M82.3525 155.286C84.6767 157.132 87.5521 159.415 87.5469 162.691C87.5417 165.301 85.2799 167.074 82.7633 166.31C81.1566 165.826 79.7475 164.292 78.5048 163.231C78.1252 162.909 77.5688 163.455 77.9536 163.783C80.5222 165.977 84.8379 169.653 87.5365 165.452C90.2299 161.266 85.9142 157.122 82.9037 154.735C82.5137 154.423 81.9573 154.974 82.3525 155.286Z" fill="#16171C"/>
<path d="M87.3171 160.398C88.0762 161.053 88.9394 161.521 89.9117 161.781C90.3953 161.911 90.6033 161.157 90.1197 161.027C89.2826 160.803 88.5286 160.413 87.8735 159.846C87.4887 159.524 86.9375 160.07 87.3171 160.398Z" fill="#16171C"/>
<path d="M81.0717 168.254C85.7981 169.221 91.2058 171.805 91.055 177.421C91.0394 177.925 91.8193 177.92 91.8349 177.421C91.9961 171.457 86.3649 168.545 81.2797 167.5C80.7909 167.401 80.5829 168.155 81.0717 168.254Z" fill="#16171C"/>
<path d="M84.0526 166.086C83.4962 163.798 85.3109 161.838 87.6143 162.077C88.1135 162.129 88.1083 161.349 87.6143 161.297C84.7805 161.001 82.6331 163.554 83.2986 166.294C83.4234 166.783 84.1722 166.575 84.0526 166.086Z" fill="#16171C"/>
<path d="M75.2563 172.31C75.3915 170.552 76.733 169.128 78.4437 168.8C78.9376 168.706 78.7296 167.953 78.2357 168.046C76.161 168.441 74.6375 170.22 74.4711 172.31C74.4399 172.809 75.2199 172.804 75.2563 172.31Z" fill="#16171C"/>
<path d="M94.2228 161.099C93.5573 159.165 92.0546 157.698 90.1047 157.09C89.6263 156.939 89.4184 157.693 89.8967 157.844C91.5762 158.369 92.8969 159.643 93.4689 161.307C93.6353 161.78 94.3892 161.577 94.2228 161.099Z" fill="#16171C"/>
<path d="M189.428 313.797C190.239 295.343 196.027 274.784 211.865 263.6C216.284 260.48 222.066 257.948 227.557 259.326C232.871 260.657 236.043 265.477 237.936 270.286C242.064 280.795 242.345 292.452 241.721 303.58C240.977 316.917 239.386 330.228 238.128 343.523C238.081 344.022 238.861 344.017 238.908 343.523C240.161 330.228 241.757 316.917 242.501 303.58C243.151 291.948 242.896 279.381 238.05 268.555C236.261 264.562 233.526 260.735 229.325 259.071C225.139 257.417 220.48 258.265 216.487 260.038C207.492 264.036 200.67 272.47 196.375 281.096C191.331 291.215 189.147 302.561 188.653 313.787C188.627 314.301 189.407 314.296 189.428 313.797Z" fill="#16171C"/>
<path d="M229.137 281.356C228.233 277.753 226.823 274.363 224.91 271.181C224.65 270.749 223.979 271.144 224.234 271.576C226.116 274.706 227.499 278.023 228.383 281.564C228.508 282.053 229.257 281.845 229.137 281.356Z" fill="#16171C"/>
<path d="M209.13 210.865C216.997 217.359 224.864 223.849 232.731 230.343C233.116 230.66 233.672 230.109 233.282 229.792C225.415 223.297 217.548 216.808 209.681 210.314C209.296 209.997 208.74 210.548 209.13 210.865Z" fill="#16171C"/>
<g clip-path="url(#clip1_190_549)">
<path d="M290.936 25.7989L281.209 25.3896L279.534 65.5203L289.262 65.9295L290.936 25.7989Z" fill="#E4E4E4"/>
<path d="M291.231 27.3293L291.278 26.2158L291.311 25.458L280.867 25.0159L279.161 65.8642L289.606 66.3063L291.231 27.3293ZM290.563 26.1409L290.524 27.0361L290.523 27.0429L290.476 28.1564L288.922 65.559L279.908 65.1837L281.55 25.7655L290.563 26.1409Z" fill="#16171C"/>
<path d="M309.815 5.17704L300.086 4.76758L297.519 66.284L307.247 66.6935L309.815 5.17704Z" fill="#487FD9"/>
<path d="M309.318 25.6241L309.39 23.7872L309.392 23.7804L310.185 4.83505L299.745 4.39386L299.194 17.5659L299.148 18.6794L297.143 66.6225L307.588 67.0647L309.318 25.6241ZM299.95 16.7484L300.429 5.14116L309.443 5.51649L308.753 22.0721L308.674 23.9007L308.673 23.9076L306.907 66.3155L297.893 65.9402L299.895 17.8651L299.95 16.7484Z" fill="#16171C"/>
<path d="M325.605 47.3626L315.876 46.9531L315.039 67.0216L324.767 67.431L325.605 47.3626Z" fill="#0BD9B3"/>
<path d="M325.836 50.3307L325.874 49.3684L325.974 47.0211L317.96 46.6841L317.187 46.6478L315.531 46.5817L314.665 67.3638L325.102 67.8046L325.836 50.3307ZM317.458 47.3703L318.23 47.4066L325.224 47.7034L325.128 49.98L325.09 50.9423L324.414 67.0541L315.401 66.6787L316.21 47.3207L317.448 47.3707L317.457 47.3726L317.458 47.3703Z" fill="#16171C"/>
<path d="M344.257 31.8761L334.529 31.4668L333.014 67.77L342.742 68.1793L344.257 31.8761Z" fill="#E4E4E4"/>
<path d="M344.158 42.9444L344.197 42.085L344.636 31.5352L334.192 31.0931L333.699 42.908L333.663 43.8634L332.647 68.1202L343.086 68.554L344.158 42.9444ZM334.44 42.2978L334.875 31.8427L343.888 32.218L343.497 41.5758L343.459 42.4282L342.401 67.8136L333.388 67.4383L334.395 43.2611L334.396 43.2542L334.44 42.2978Z" fill="#16171C"/>
<path d="M361.266 44.0958L351.538 43.6865L350.503 68.5075L360.231 68.9167L361.266 44.0958Z" fill="#487FD9"/>
<path d="M361.592 44.9628L361.643 43.7569L361.636 43.7556L351.203 43.3157L351.045 47.1231L351.007 47.9755L350.13 68.8486L360.574 69.2907L361.592 44.9628ZM351.74 47.6337L351.888 44.0561L360.9 44.4384L360.886 44.6911L360.884 44.698L360.834 45.9039L360.833 45.9108L359.891 68.5435L350.877 68.1681L351.7 48.4857L351.74 47.6337Z" fill="#16171C"/>
<path d="M380.277 20.4729L370.548 20.0635L368.494 69.2677L378.223 69.6772L380.277 20.4729Z" fill="#0BD9B3"/>
<path d="M380.167 31.4493L380.205 30.5968L380.641 20.1348L370.197 19.6927L369.608 33.753L369.556 34.9658L369.555 34.9726L368.112 69.6073L378.556 70.0494L380.167 31.4493ZM370.373 32.799L370.889 20.4345L379.901 20.8167L379.515 30.1087L379.478 30.9543L377.875 69.3003L368.862 68.925L370.322 34.0118L370.373 32.799Z" fill="#16171C"/>
<path d="M397.309 32.5128L387.581 32.1035L386 70.0009L395.727 70.4102L397.309 32.5128Z" fill="#E4E4E4"/>
<path d="M396.947 49.9944L396.961 49.6318L396.975 49.2715L397.693 32.1768L387.249 31.7347L387.092 35.4635L387.056 36.309L385.637 70.3514L390.354 70.5521L390.717 70.5668L391.071 70.5797L396.083 70.7962L396.947 49.9944ZM386.374 69.664L387.749 36.8026L387.787 35.9502L387.929 32.4742L396.941 32.8564L396.259 49.1437L396.245 49.504L396.224 49.8652L395.384 70.0411L391.189 69.865L390.828 69.8508L390.472 69.8374L386.374 69.664Z" fill="#16171C"/>
<path d="M320.278 54.9147L304.519 12.8088L286.04 33.0011L285.511 32.5187L304.782 11.4635L320.596 53.726L339.166 38.389L356.033 50.7863L375.038 26.948L392.358 39.1821L391.946 39.7666L375.175 27.9211L356.163 51.77L339.192 39.2947L320.278 54.9147Z" fill="#16171C"/>
</g>
<g clip-path="url(#clip2_190_549)">
<path d="M113.039 60.8126C114.17 56.0875 114.337 51.0531 113.362 45.9728C112.135 39.5822 109.254 33.9245 105.243 29.3564L81.271 51.4449L113.039 60.8126Z" fill="#487FD9"/>
<path d="M72.8213 87.5466L79.6157 53.8096L111.843 64.7634C107.694 76.0455 97.8774 84.939 85.1735 87.3626C80.9749 88.1636 76.8082 88.1921 72.8213 87.5466Z" fill="#0BD9B3"/>
<path d="M61.0234 21.8221C64.1206 20.0773 67.533 18.772 71.192 18.0059L77.1397 48.6563L61.0234 21.8221Z" fill="#487FD9"/>
<path d="M58.2569 23.5537L76.5154 52.8813L68.7677 86.6453C56.2977 83.0907 46.2438 72.8316 43.6399 59.2702C40.9184 45.0997 47.0889 31.2877 58.2569 23.5537Z" fill="#E4E4E4"/>
<path d="M102.049 26.1533C94.5942 19.574 84.448 16.1749 73.9468 17.539L79.7751 48.1529L102.049 26.1533Z" fill="#0BD9B3"/>
<path d="M102.211 25.9727C94.4604 19.1318 84.1438 15.9674 73.9164 17.2982L73.6602 17.3315L73.7079 17.5837L79.6206 48.6465L79.9453 48.3277L102.223 26.3249L102.407 26.1409L102.211 25.9727ZM79.9309 47.6599L74.2315 17.7486C84.1534 16.5289 94.1341 19.5917 101.693 26.1662L79.9309 47.6599Z" fill="#16171C"/>
</g>
<defs>
<clipPath id="clip0_190_549">
<rect width="330.976" height="170.285" fill="white" transform="translate(32.7769 68.2588)"/>
</clipPath>
<clipPath id="clip1_190_549">
<rect width="121.919" height="65.9021" fill="white" transform="translate(285.833) rotate(11.2294)"/>
</clipPath>
<clipPath id="clip2_190_549">
<rect width="71" height="71" fill="white" transform="translate(43 17)"/>
</clipPath>
</defs>
</svg>
