<svg width="171" height="42" viewBox="0 0 171 42" fill="none" xmlns="http://www.w3.org/2000/svg">
<path d="M51.3888 9.12439C52.6617 10.8061 53.2982 12.9238 53.2982 15.5461C53.2982 18.1015 52.6617 20.2193 51.4225 21.9009C50.0156 23.717 48.1062 24.6576 45.6268 24.6576C42.8469 24.6576 40.8364 23.2793 39.5643 20.5556V30.8451H37.5547V6.80469H39.4641V10.234C40.7371 7.61172 42.7467 6.33398 45.5611 6.33398C48.0052 6.33398 49.9483 7.24159 51.3888 9.12439ZM40.9374 10.2678C39.9659 11.5793 39.4969 13.2939 39.4969 15.4117V15.7818C39.4969 17.8666 39.9996 19.5812 41.0376 20.9266C42.0765 22.2711 43.4825 22.9438 45.2581 22.9438C47.2348 22.9438 48.7418 22.2043 49.8136 20.7922C50.7515 19.4807 51.2204 17.7322 51.2204 15.5469C51.2204 13.3616 50.7515 11.6131 49.8473 10.3016C48.7755 8.7889 47.2677 8.04862 45.3246 8.04862C43.4497 8.04862 41.9755 8.7889 40.9374 10.2678Z" fill="white"/>
<path d="M69.5751 8.31722C70.5803 9.42679 71.1158 10.9733 71.1158 12.9904V24.1876H69.2064V20.8588C68.5025 21.8679 67.5646 22.7417 66.4264 23.4143C65.0196 24.2214 63.5117 24.6583 61.8709 24.6583C60.1955 24.6583 58.8224 24.2214 57.818 23.3805C56.7126 22.5067 56.1763 21.3296 56.1763 19.9174C56.1763 17.9003 56.9803 16.4206 58.6211 15.4792C60.028 14.5716 62.0712 14.1009 64.6845 14.1009L69.1062 14.0333V12.9904C69.1062 9.69553 67.4316 8.04765 64.0817 8.04765C62.6749 8.04765 61.5358 8.31638 60.6316 8.92229C59.6264 9.56116 58.9899 10.4688 58.7222 11.6789L56.7454 11.5445C57.0805 9.79609 57.951 8.45074 59.3586 7.57695C60.5979 6.73695 62.206 6.33301 64.1819 6.33301C66.5939 6.33385 68.4032 6.97272 69.5751 8.31722ZM64.7855 15.6811C60.3976 15.7149 58.2204 17.127 58.2204 19.8845C58.2204 20.8259 58.5892 21.5662 59.3258 22.1374C60.0633 22.7095 61.0677 23.0112 62.2733 23.0112C64.0152 23.0112 65.6232 22.4062 67.03 21.196C68.4032 20.0527 69.107 18.7749 69.107 17.4296V15.6144L64.7855 15.6811Z" fill="white"/>
<path d="M75.6039 6.80469L81.2648 21.2967L86.8584 6.80469H89.0692L79.5229 30.8451H77.3458L80.2596 23.7508L73.3931 6.80469H75.6039Z" fill="white"/>
<path d="M93.7238 0.180664V14.9076C93.7238 17.4631 94.2593 19.4135 95.3984 20.7242C96.604 22.1025 98.4469 22.809 100.993 22.809C103.538 22.809 105.381 22.1025 106.586 20.7242C107.692 19.4135 108.262 17.4631 108.262 14.9076V0.180664H110.305V14.9076C110.305 18.0352 109.535 20.4217 108.061 22.0696C106.486 23.7842 104.141 24.658 100.993 24.658C97.8441 24.658 95.4994 23.7842 93.9579 22.1025C92.4172 20.4217 91.6797 18.0344 91.6797 14.9076V0.180664H93.7238Z" fill="white"/>
<path d="M124.974 0.180664V1.96291H122.06C121.189 1.96291 120.553 2.16488 120.15 2.63474C119.748 3.07164 119.548 3.77811 119.548 4.78627V6.80345H130.133V24.1865H128.123V8.55273H119.548V24.1873H117.538V8.55273H112.915V6.80429H117.538V4.75332C117.538 3.30741 117.873 2.19784 118.61 1.4246C119.346 0.583761 120.418 0.180664 121.892 0.180664H124.974Z" fill="white"/>
<path d="M144.77 6.70412V8.7551C143.866 8.48637 142.994 8.38496 142.124 8.38496C140.583 8.38496 139.31 9.05763 138.372 10.4697C137.434 11.7475 136.998 13.2601 136.998 15.0094V24.1885H134.989V6.80469H136.998V10.1334C137.467 9.05763 138.104 8.18299 138.908 7.54412C139.846 6.73708 140.985 6.33398 142.258 6.33398C143.262 6.33398 144.1 6.43455 144.77 6.70412Z" fill="white"/>
<path d="M159.842 11.68H157.865C157.631 10.469 157.162 9.59523 156.424 9.02396C155.62 8.38509 154.448 8.08256 152.907 8.08256C151.634 8.08256 150.595 8.31749 149.791 8.85579C148.987 9.3941 148.585 10.0668 148.585 10.9406C148.585 11.8144 149.088 12.5208 150.126 13.0583C150.796 13.3946 152.002 13.7977 153.777 14.2684C155.887 14.8067 157.395 15.3442 158.266 15.8825C159.639 16.7225 160.343 17.8997 160.343 19.3794C160.343 22.8763 157.998 24.6585 153.309 24.6585C148.853 24.6585 146.441 22.6752 146.04 18.7076H148.016C148.218 20.2202 148.753 21.3307 149.624 22.0025C150.428 22.6076 151.634 22.9101 153.242 22.9101C156.592 22.9101 158.266 21.7667 158.266 19.4808C158.266 18.438 157.697 17.6318 156.558 17.0597C155.955 16.7572 154.682 16.3541 152.706 15.8496C150.696 15.3113 149.289 14.8068 148.485 14.3031C147.145 13.4961 146.509 12.3865 146.509 10.9744C146.509 9.56227 147.112 8.4527 148.385 7.5789C149.591 6.7389 151.131 6.33496 152.941 6.33496C157.028 6.33412 159.34 8.11636 159.842 11.68Z" fill="white"/>
<path d="M166.478 6.93102H171V8.67947H166.478V20.4479C166.478 21.1873 166.612 21.7586 166.881 22.0957C167.148 22.3983 167.651 22.5664 168.388 22.5664H170.565V24.3149H168.119C166.78 24.3149 165.807 23.9447 165.238 23.2721C164.702 22.667 164.468 21.7256 164.468 20.4479V8.67947H160.783V6.93102H164.468V2.1564L166.477 1.31641V6.93102H166.478Z" fill="white"/>
<path d="M23.8258 23.9999V30.8449H15.3175C13.9764 30.8449 12.6756 30.6717 11.4364 30.3463C9.76435 29.9086 8.20599 29.1928 6.80844 28.2531C5.13643 27.1292 3.69846 25.6824 2.57958 24.0024C1.60213 22.5354 0.867998 20.8892 0.43863 19.1238C0.152384 17.9458 0 16.7154 0 15.4495V0H6.81938V15.4216C6.81938 16.7467 7.11826 18.0016 7.65118 19.1213C8.45604 20.8106 9.79381 22.194 11.4448 23.05C12.615 23.6568 13.9427 23.9999 15.3504 23.9999H23.8258Z" fill="white"/>
<path d="M23.8257 0H17.0063V6.84504H23.8257V0Z" fill="#0BD9B3"/>
<path d="M17.0069 34.5635H10.1875V41.4085H17.0069V34.5635Z" fill="#0BD9B3"/>
<path d="M23.9098 6.84473V12.2531H15.1128C13.3742 12.2531 11.8049 13.694 11.6989 15.4602C11.5793 17.4478 13.1284 19.0982 15.0547 19.0982H23.9098V19.0999C26.6215 19.1709 28.8324 21.2903 29.1152 23.9996H30.645V6.84473H23.9098Z" fill="#0BD9B3"/>
</svg>
